<?xml version="1.0" encoding="UTF-8" standalone="no"?>
<!-- Created with Inkscape (http://www.inkscape.org/) -->

<svg
   viewBox="0 0 180.70044 180.44917"
   version="1.1"
   id="svg1"
   xml:space="preserve"
   xmlns="http://www.w3.org/2000/svg"
   xmlns:svg="http://www.w3.org/2000/svg"><defs
     id="defs1" /><g
     id="layer1"
     transform="translate(-12.753917,-52.454691)"><path
       style="fill:#000000;fill-opacity:1"
       d="m 40.677977,229.94926 0.242059,-2.91042 0.04002,-4.40972 0.04002,-4.40972 0.681615,-1.41111 0.681615,-1.41111 0.01197,-0.3863 0.01197,-0.3863 0.617361,-0.55635 0.617361,-0.55636 1.058333,-0.25651 1.058334,-0.2565 0.695856,-0.47654 0.695856,-0.47653 h 2.705483 2.705483 l 0.174656,-0.79375 0.174656,-0.79375 -0.104936,-2.06043 -0.104935,-2.06042 -0.737032,-0.78454 -0.737032,-0.78453 v -1.53699 -1.53698 l -0.463479,-0.55695 -0.463479,-0.55694 -1.011139,-2.57607 -1.011139,-2.57607 -0.289271,-0.17878 -0.289271,-0.17878 v -0.81355 -0.81354 l -0.657027,-0.84133 -0.657027,-0.84132 -0.24869,-0.79375 -0.24869,-0.79375 h -0.65293 -0.65293 l -0.558019,0.21413 -0.55802,0.21413 v 1.04579 1.04579 l 0.529167,0.52916 0.529166,0.52917 0.05292,2.09147 0.05292,2.09147 0.03528,0.35277 0.03528,0.35278 -0.339967,0.0476 -0.339967,0.0476 -0.365588,-0.65001 -0.365589,-0.65001 -0.440972,-0.48107 -0.440972,-0.48107 v -1.37217 -1.37217 l -0.674449,-0.63111 -0.674449,-0.6311 -0.230878,-1.41111 -0.230877,-1.41111 -0.403004,-1.70268 -0.403003,-1.70267 -0.590421,-0.31599 -0.59042,-0.31598 -0.239532,-1.59731 -0.239532,-1.59732 h -0.31458 -0.31458 l -0.367393,1.32292 -0.367392,1.32292 -0.002,0.61736 -0.002,0.61736 h -0.339035 -0.339035 l -0.719298,-0.77208 -0.719298,-0.77207 v -1.31939 -1.3194 l -0.460712,-0.46617 -0.460711,-0.46617 -0.216831,-0.57321 -0.216831,-0.57321 -1.968291,-0.24593 -1.968291,-0.24592 v -0.28915 -0.28915 l -0.970139,-0.24325 -0.970139,-0.24325 -0.631104,-0.67694 -0.631103,-0.67693 H 25.30147 24.471012 l -0.203061,-0.52917 -0.20306,-0.52917 h -0.490682 -0.490681 l -1.901641,-2.15801 -1.90164,-2.15801 -0.615036,-0.92879 -0.615037,-0.9288 -0.0023,-0.59359 -0.0023,-0.59358 -0.705556,-0.22394 -0.705555,-0.22393 v -1.44776 -1.44775 l -0.549225,-0.60689 -0.549225,-0.60689 -0.283779,-2.81497 -0.283779,-2.81497 -0.190575,-0.31009 -0.190576,-0.31008 0.455527,-4.83701 0.455526,-4.837 0.568053,-0.56806 0.568053,-0.56805 v -2.06635 -2.06635 l 1.234722,-1.30919 1.234722,-1.30918 v -0.2763 -0.27629 l 1.054942,-1.05494 1.054941,-1.05495 0.319328,-0.11872 0.319327,-0.11872 0.125037,-5.46806 0.125036,-5.46805 -0.7654,-0.10902 -0.7654,-0.10901 -0.733905,0.62838 -0.733906,0.62839 v 0.26819 0.26818 l -1.527028,1.59369 -1.527027,1.5937 h -0.766028 -0.766028 v -0.32393 -0.32392 l -0.196677,-0.51254 -0.196677,-0.51253 0.600829,-0.60083 0.60083,-0.60083 0.654181,-1.28314 0.654181,-1.28313 v -1.27299 -1.27298 l 1.071167,-1.19978 1.071167,-1.19979 0.210936,-0.89222 0.210937,-0.89223 0.511682,-0.58998 0.511682,-0.58998 0.194741,-1.4519 0.194741,-1.4519 0.657307,-0.35178 0.657307,-0.35178 v -0.84871 -0.84872 l 0.352777,-0.21803 0.352778,-0.21802 v -0.86113 -0.86112 h -1.058333 -1.058334 v 0.35278 0.35277 l -1.411111,1.41111 -1.411111,1.41111 v 0.35278 0.35278 H 17.16363 16.634463 v 0.28103 0.28102 l -0.617361,0.8285 -0.617361,0.8285 -1.04876,1.00714 -1.048759,1.00714 h -0.274147 -0.274158 l 0.0052,-1.14652 0.0052,-1.14653 0.508819,-0.88195 0.508818,-0.88194 0.359194,-0.79375 0.359194,-0.79375 h 0.345524 0.345524 l 0.236919,-1.26289 0.236919,-1.26288 0.484622,-0.18597 0.484622,-0.18597 v -0.70036 -0.70036 l 0.705555,-0.89697 0.705556,-0.89697 v -0.4384 -0.43839 l 0.529167,-0.43917 0.529166,-0.43917 v -0.61478 -0.61479 l 0.705556,-0.89697 0.705555,-0.89697 v -0.77113 -0.77113 l 0.705556,-0.18451 0.705556,-0.18451 v -1.040728 -1.04074 l 1.231662,-1.29937 1.231662,-1.29937 0.0031,-0.5857 0.0031,-0.5857 0.944609,-1.44277 0.944609,-1.44277 h 0.290113 0.290113 v -0.57523 -0.57523 l 1.234723,-1.71864 1.234722,-1.71865 v -0.33955 -0.33954 l 0.70139,-0.37538 0.70139,-0.37537 0.218798,-0.87176 0.218799,-0.87176 h 0.290761 0.290761 l 0.223934,-0.70556 0.223935,-0.70555 h 0.405968 0.405968 l 0.804981,-0.93682 0.804982,-0.93681 v -0.4743 -0.4744 h 0.266158 0.266159 l 1.762314,-1.75261 1.762313,-1.75262 0.352778,-0.023 0.352778,-0.023 0.722711,-0.60562 0.722711,-0.60563 0.236356,-0.61736 0.236356,-0.61736 h 0.364087 0.364087 l 1.94004,-1.9871 1.940041,-1.98709 v -0.27111 -0.27112 l 1.146527,-0.73228 1.146528,-0.73228 0.705556,-0.44909 0.705555,-0.449098 0.176389,-0.202121 0.176389,-0.202121 0.617361,-0.227779 0.617361,-0.227779 v -0.533518 -0.533517 l 0.881945,-0.221354 0.881944,-0.221354 v -0.271755 -0.271734 l 1.058333,-0.438377 1.058334,-0.438376 V 62.81361 62.53925 l 1.336945,-0.696855 1.336946,-0.696855 1.132499,-0.248738 1.132499,-0.248739 v -0.308762 -0.308762 l 1.315751,-0.246837 1.315752,-0.246836 1.065498,-0.649775 1.065499,-0.649775 0.881944,-0.01254 0.881945,-0.01254 0.684787,-0.517947 0.684787,-0.517948 h 1.023458 1.023459 l 0.896968,-0.705555 0.896969,-0.705556 1.275341,-0.0022 1.275342,-0.0022 0.902802,-0.471138 0.902802,-0.471138 1.566643,-0.250074 1.566642,-0.250075 0.804079,-0.526237 0.804079,-0.526237 2.370921,-0.398319 2.370921,-0.398319 25.929162,-0.0073 25.92917,-0.0073 1.89093,0.405445 1.89093,0.405445 0.85225,0.558412 0.85224,0.558412 2.28391,0.213274 2.2839,0.213275 v 0.273734 0.273734 l 1.14653,0.248283 1.14653,0.248282 0.9364,0.661692 0.93641,0.661692 h 0.87248 0.87248 l 0.43917,0.529167 0.43917,0.529167 h 1.37137 1.37137 l 0.60412,0.705555 0.60411,0.705556 h 0.57842 0.57842 l 2.78276,1.40499 2.78276,1.404989 0.37266,0.308996 0.37267,0.308996 1.29812,0.428418 1.29812,0.428418 0.1774,0.287049 0.17741,0.287049 1.23862,0.232366 1.23862,0.232366 v 0.322632 0.322631 l 1.4993,0.437958 1.49931,0.437959 0.17639,0.193564 0.17638,0.193563 0.88195,0.51211 0.88194,0.51212 1.08963,0.56737 1.08962,0.56738 1.02344,0.94898 1.02344,0.94898 h 0.24299 0.24299 l 0.5799,0.57991 0.57991,0.57991 1.22485,0.8312 1.22484,0.83121 h 0.2509 0.25089 l 1.0295,1.23472 1.0295,1.23472 h 0.38943 0.38943 l 0.58022,0.67765 0.58022,0.67765 0.39253,0.73346 0.39254,0.73346 h 0.51676 0.51675 v 0.55969 0.55969 l 1.13094,1.57481 1.13095,1.57482 0.14285,2.36341 0.14284,2.36342 -1.18219,-1.05834 -1.1822,-1.05833 -0.28551,-0.44097 -0.28552,-0.44097 h -0.33524 -0.33525 l -0.64431,-0.64431 -0.64431,-0.64432 -0.22657,-0.59041 -0.22656,-0.59041 h -0.39423 -0.39424 l -1.25174,-1.14653 -1.25175,-1.14652 -1.49033,-1.49931 -1.49034,-1.49931 h -0.57892 -0.57892 v -0.33622 -0.33623 l -1.21804,-0.578 -1.21804,-0.57799 -0.91681,-0.84967 -0.9168,-0.84966 -0.4228,-0.008 -0.42279,-0.008 -0.88195,-0.68987 -0.88194,-0.68987 -0.57962,-0.008 -0.57962,-0.008 -0.22384,-0.58331 -0.22384,-0.58332 -0.50824,0.67151 -0.50824,0.67151 -0.0112,0.45701 -0.0112,0.45701 0.88194,0.88194 0.88194,0.88195 v 0.33674 0.33674 l 0.61737,0.68027 0.61736,0.68027 0.41747,0.51441 0.41748,0.51441 0.25448,1.35649 0.25448,1.3565 1.00386,1.00386 1.00385,1.00386 0.22492,0.94288 0.22491,0.94288 0.26724,0.35278 0.26724,0.35278 0.91884,1.65539 0.91884,1.65539 v 1.02396 1.02396 l 0.70555,0.63852 0.70556,0.63852 v 1.30246 1.30245 l 0.70555,0.81352 0.70556,0.81351 0.0125,0.73977 0.0125,0.73977 0.50417,0.88195 0.50416,0.88194 0.0125,2.040888 0.0125,2.04088 0.6134,0.93617 0.6134,0.93616 0.21677,2.65014 0.21676,2.65013 0.40456,0.13485 0.40456,0.13486 v 2.19763 2.19764 l 0.89094,1.9181 0.89093,1.91811 0.34379,0.61257 0.34378,0.61258 v 2.2841 2.2841 l 0.72785,0.6781 0.72786,0.67809 -0.11049,1.45854 -0.1105,1.45854 -0.34162,0.082 -0.34162,0.082 -0.30587,-1.54672 -0.30588,-1.54672 -0.98298,-0.92273 -0.98298,-0.92272 -0.22736,-2.29306 -0.22736,-2.29305 -0.50793,-1.41112 -0.50793,-1.41111 -0.0155,-1.32291 -0.0155,-1.32292 h -0.49142 -0.49142 l -0.21413,-0.55802 -0.21414,-0.55802 v -0.6767 -0.6767 h -0.33116 -0.33116 l -0.24513,-1.63463 -0.24512,-1.63462 -0.65844,-0.65844 -0.65843,-0.65843 v -1.19153 -1.19152 l -0.52917,-0.43917 -0.52916,-0.43917 v -0.96756 -0.96757 l -0.73117,-0.92951 -0.73116,-0.92952 h -0.49229 -0.4923 l -0.48552,-0.926668 -0.48553,-0.92667 -0.21631,0.56368 -0.2163,0.56368 0.51418,0.514178 0.51417,0.51418 v 2.64583 2.64583 l 0.50367,0.50367 0.50367,0.50368 0.24789,1.37361 0.24788,1.37361 0.35072,0.44186 0.35071,0.44187 0.30885,3.04703 0.30884,3.04702 0.48903,0.39167 0.48902,0.39166 0.23526,2.99861 0.23525,2.99861 0.1343,1.76389 0.13429,1.76389 0.76382,2.29306 0.76383,2.29305 0.18724,4.20901 0.18725,4.209 0.6598,0.70821 0.65979,0.70821 v 1.83056 1.83057 l -0.52499,0.4357 -0.52499,0.43571 -0.20632,-0.6571 -0.20631,-0.65709 -0.32703,-0.61257 -0.32702,-0.61258 v -1.93132 -1.93132 l -0.75768,-0.70589 -0.75768,-0.70588 -0.17256,-2.68885 -0.17256,-2.68885 -0.45916,-0.1762 -0.45917,-0.1762 -0.23874,-1.91086 -0.23875,-1.91087 h -0.29614 -0.29615 l -0.2353,-1.32292 -0.2353,-1.32291 -0.66263,-1.09997 -0.66263,-1.09998 -0.0125,-1.19308 -0.0125,-1.19308 -0.50416,-0.88195 -0.50417,-0.88194 -0.0125,-1.16972 -0.0125,-1.16972 -0.36519,-0.68236 -0.36519,-0.68237 h -0.82839 -0.82838 l -0.18903,0.72283 -0.18902,0.72282 0.19517,2.71676 0.19517,2.71676 0.27427,0.35278 0.27427,0.35277 0.25083,2.99861 0.25083,2.99862 0.47599,0.54594 0.47598,0.54594 0.10852,5.98045 0.10852,5.98044 1.31255,0.10949 1.31254,0.10949 v 0.49779 0.49778 l 1.14653,0.29521 1.14653,0.29521 0.1084,1.47717 0.1084,1.47717 0.68535,0.36679 0.68535,0.36678 0.0181,2.01606 0.0181,2.01606 0.28655,2.46945 0.28654,2.46944 -0.31168,3.44661 -0.31168,3.4466 -0.69854,0.69854 -0.69853,0.69853 v 1.15632 1.15632 l -0.70556,0.60412 -0.70555,0.60411 -0.005,0.97359 -0.005,0.9736 -0.29972,0.47287 -0.29971,0.47288 -0.84141,0.41912 -0.84141,0.41912 -0.19393,1.40106 -0.19393,1.40106 -1.12898,1.22515 -1.12899,1.22514 v 0.60174 0.60174 l -0.53543,0.53542 -0.53542,0.53543 -0.32829,2.58931 -0.3283,2.58932 -0.54522,1.0456 -0.54522,1.04559 -0.002,1.81434 -0.002,1.81434 -0.49401,0.18957 -0.49401,0.18957 -0.23912,1.41537 -0.23913,1.41536 -0.50159,0.41628 -0.50159,0.41629 v 0.51116 0.51117 l -0.54649,0.54649 -0.54649,0.5465 -0.20158,1.00789 -0.20158,1.0079 -0.48665,0.40389 -0.48665,0.40388 v 0.62462 0.62462 l -0.52917,0.20306 -0.52917,0.20306 v 0.50249 0.5025 l -0.53221,0.20423 -0.53222,0.20423 -0.42864,0.98004 -0.42863,0.98004 -1.24853,1.23472 -1.24854,1.23473 -0.98457,0.63791 -0.98458,0.63792 -0.21867,0.56985 -0.21867,0.56986 -0.66386,0.73251 -0.66386,0.7325 -1.0764,1.09318 -1.0764,1.09319 -0.28034,1.53307 -0.28035,1.53308 0.33183,0.87277 0.33183,0.87277 0.60349,0.44963 0.60349,0.44963 1.4296,-0.0232 1.42959,-0.0233 1.09857,0.24129 1.09858,0.24128 0.18202,0.47435 0.18202,0.47434 1.0527,0.23121 1.0527,0.23121 0.19479,0.50761 0.19479,0.50761 h 0.54024 0.54023 v 0.49143 0.49142 l 0.52917,0.20306 0.52917,0.20306 v 1.02621 1.02621 l 0.47806,0.39676 0.47807,0.39676 0.21795,2.38046 0.21795,2.38047 0.22707,0.79375 0.22708,0.79375 h -1.45226 -1.45226 l -0.002,-0.79375 -0.002,-0.79375 -0.7009,-1.05834 -0.70091,-1.05833 -0.002,-2.73403 -0.002,-2.73403 h -0.9221 -0.92211 l -1.45914,-0.78256 -1.45915,-0.78256 -0.59513,-0.48672 -0.59513,-0.48672 -0.32944,0.20361 -0.32944,0.20361 -0.20463,1.02315 -0.20463,1.02315 -0.57169,0.57169 -0.57169,0.57169 h -0.81372 -0.81372 l -0.49329,0.74294 -0.4933,0.74294 -2.37832,0.24617 -2.37833,0.24616 -0.59737,0.59738 -0.59738,0.59737 1.3093,1.23497 1.3093,1.23497 v 1.25784 1.25785 l -1.14653,-0.11055 -1.14652,-0.11054 -0.11077,-1.14947 -0.11076,-1.14947 -0.94757,-1.02036 -0.94757,-1.02036 -1.5875,-0.0389 -1.5875,-0.0389 -2.73403,0.21702 -2.73403,0.21702 v 0.46367 0.46368 l -1.21212,0.74914 -1.21213,0.74913 -0.11079,0.77895 -0.11079,0.77894 -18.27083,0.0346 -18.270826,0.0346 -0.77917,-0.82222 -0.77917,-0.82223 -1.302096,-0.006 -1.302097,-0.006 -0.220778,-0.35723 -0.220778,-0.35722 -1.852015,0.0775 -1.852015,0.0775 -1.916777,-0.91524 -1.916777,-0.91524 -1.579914,-0.19338 -1.579915,-0.19339 -0.125178,-0.37554 -0.125178,-0.37553 h -1.014835 -1.012336 l -0.810349,-0.31914 -0.81035,-0.31913 -2.010715,-0.43851 -2.010716,-0.4385 -0.172284,-0.44897 -0.172285,-0.44896 -1.951583,-0.24384 -1.951584,-0.24383 -0.406529,-0.48984 -0.406529,-0.48984 -1.27972,-0.008 -1.279721,-0.008 -1.537831,-0.69781 -1.53783,-0.69781 h -1.03088 -1.030881 l -0.20306,-0.52916 -0.20306,-0.52917 h -1.881715 -1.881715 l -0.242945,-0.39309 -0.242945,-0.3931 -1.366543,0.1833 -1.366544,0.18329 -0.303851,-0.54295 -0.30385,-0.54295 -1.831568,-0.17599 -1.831568,-0.17599 -1.391191,-1.33666 -1.39119,-1.33666 v -0.7208 -0.7208 l -0.709825,-0.37989 -0.709825,-0.37988 -1.230453,0.93851 -1.230453,0.93851 -0.01536,2.69216 -0.01536,2.69216 -0.358342,1.5875 -0.358342,1.5875 -0.278101,3.56269 -0.2781,3.56269 -0.250958,0.40606 -0.250958,0.40606 H 41.56716 40.435925 Z m 81.194153,0.63959 0.63904,-0.4845 4.01322,-0.25076 4.01322,-0.25075 0.18736,-0.48825 0.18735,-0.48825 h 1.08048 1.08048 l 0.20306,-0.52916 0.20306,-0.52917 h 0.43675 0.43674 l 0.63852,-0.70556 0.63852,-0.70555 h 0.56602 0.56602 l 0.44063,-0.70556 0.44062,-0.70555 0.79077,-0.01 0.79076,-0.01 0.88194,-1.21529 0.88194,-1.2153 0.57417,-0.01 0.57417,-0.01 0.43916,-0.52916 0.43917,-0.52917 h 0.60574 0.60573 l 0.40184,-0.88194 0.40184,-0.88195 h 0.7239 0.7239 l 1.0841,-1.23472 1.0841,-1.23472 h 0.66901 0.66901 v -0.52917 -0.52917 h 0.40278 0.40278 l 1.09319,-1.14652 1.09319,-1.14653 1.16553,-0.79375 1.16553,-0.79375 h 0.33711 0.33711 v -0.34659 -0.34658 l 1.52703,-1.59369 1.52703,-1.5937 h 0.37399 0.37398 l 0.23164,-1.23472 0.23163,-1.23472 h 0.54621 0.54621 l 0.18451,-0.70556 0.1845,-0.70555 h 0.30895 0.30895 l 0.88463,-0.76918 0.88463,-0.76917 v -0.47662 -0.47662 l 0.52917,-0.20306 0.52916,-0.20306 v -0.83179 -0.83179 l 0.70556,-0.3776 0.70555,-0.3776 v -0.6554 -0.6554 l 0.52917,-0.20307 0.52917,-0.20306 v -0.71662 -0.71663 l 0.70555,-0.70556 0.70556,-0.70555 v -1.20953 -1.20952 l 0.51941,-0.51941 0.5194,-0.5194 0.23452,-1.53427 0.23451,-1.53426 0.31616,-0.61612 0.31616,-0.61612 0.37362,-2.02971 0.37363,-2.02972 0.4008,-0.48606 0.4008,-0.48606 0.12799,-6.04033 0.128,-6.04032 0.49762,-0.78237 0.49761,-0.78236 0.17994,-4.68569 0.17993,-4.6857 0.14367,-3.88055 0.14368,-3.88056 0.60677,-1.19317 0.60677,-1.19317 -0.2143,-3.03671 -0.21431,-3.03671 -0.54036,-0.39512 -0.54035,-0.39512 v -1.94201 -1.942 l -0.6587,-0.84133 -0.6587,-0.84132 -0.15959,-2.2329 -0.15959,-2.23289 -0.37212,-0.23655 -0.37211,-0.23655 -0.26144,-1.23473 -0.26145,-1.23472 -0.31507,-0.39257 -0.31507,-0.39258 -0.3774,-2.04152 -0.3774,-2.04152 -0.45264,-0.45265 -0.45264,-0.45264 -0.23536,-1.47182 -0.23535,-1.47182 -0.51908,-1.00378 -0.51907,-1.00378 v -1.60502 -1.60388 h -0.52917 -0.52917 v -0.70683 -0.70684 l -0.70555,-1.31641 -0.70556,-1.31641 v -0.81005 -0.81004 l -0.52916,-0.20306 -0.52917,-0.20306 v -2.01241 -2.0124 l -0.6624,-0.711 -0.6624,-0.711 -0.21901,-0.67844 -0.21902,-0.67843 -0.86508,-0.39958 -0.86508,-0.39957 -0.19378,0.19379 -0.19379,0.19378 v 1.29812 1.29811 l 0.50422,1.02434 0.50422,1.02434 0.24651,5.46805 0.2465,5.46806 0.20026,0.3426 0.20026,0.34261 0.0885,4.94906 0.0885,4.94906 0.2011,2.99861 0.20111,2.99861 -1.09258,0.48312 -1.09257,0.48312 -0.39492,-0.39493 -0.39492,-0.39492 h -0.64608 -0.64607 l -0.20041,0.52228 -0.20042,0.52227 -1.28782,0.3577 -1.28782,0.3577 -0.97013,0.002 -0.97014,0.002 v 0.40192 0.40191 l -1.72543,-0.20435 -1.72542,-0.20435 -0.65583,0.4814 -0.65582,0.48141 v 0.99672 0.99673 h -1.23473 -1.23472 l -0.10949,-1.32292 -0.10949,-1.32292 h -6.3287 -6.32871 v -0.329 -0.329 l -0.70808,-0.22474 -0.70809,-0.22474 -1.12007,0.55877 -1.12007,0.55876 -0.28311,-0.44599 -0.28311,-0.446 -0.005,-3.26319 -0.005,-3.2632 h 0.66629 0.6663 l 0.23163,1.23472 0.23164,1.23473 h 1.18099 1.181 l 0.20306,-0.52917 0.20306,-0.52917 h 0.86924 0.86924 l 0.21359,-0.67296 0.2136,-0.67297 0.51573,-0.19791 0.51574,-0.1979 v -1.25821 -1.2582 l -0.49916,-0.78134 -0.49916,-0.78134 -0.25403,-3.15773 -0.25403,-3.15772 -0.48153,-1.15247 -0.48153,-1.15247 -0.002,-2.2162 -0.002,-2.21619 -0.52699,-1.01046 -0.527,-1.01046 v -1.21464 -1.21464 l -0.40532,-2.5374 -0.40533,-2.53739 -0.26623,-0.35278 -0.26623,-0.35278 -0.25162,-2.033128 -0.25162,-2.03314 -0.31154,-0.19255 -0.31155,-0.19254 v -1.85203 -1.85204 l -0.50542,-0.68478 -0.50542,-0.68479 -0.46472,0.45969 -0.46472,0.45969 -0.0134,8.536138 -0.0134,8.53615 -0.27358,5.64444 -0.27359,5.64444 -0.4047,1.49007 -0.40471,1.49007 -0.53377,0.20483 -0.53376,0.20482 -0.45028,-0.61579 -0.45028,-0.6158 -0.0155,-3.37215 -0.0155,-3.37216 -0.56273,-1.41111 -0.56274,-1.41111 -0.26277,-2.99861 -0.26277,-2.99861 -0.38098,-1.41111 -0.38098,-1.41111 -0.58111,-2.64584 -0.5811,-2.645828 -0.25134,-3.82126 -0.25134,-3.82127 -0.49339,-0.30492 -0.49338,-0.30493 -0.18623,-3.5182 -0.18622,-3.5182 -0.21566,-0.21479 -0.21566,-0.21478 -0.89819,0.34149 -0.8982,0.34149 -0.24832,1.16769 -0.24833,1.16768 -0.44506,0.52917 -0.44506,0.52916 -0.17559,1.65526 -0.1756,1.65525 -0.57481,0.57481 -0.5748,0.5748 v 1.57338 1.57337 l -0.52917,0.20306 -0.52917,0.20306 -0.012,0.40323 -0.012,0.40323 -0.68161,1.41111 -0.68162,1.41111 -0.0198,1.234718 -0.0198,1.23473 -0.68987,0.88194 -0.68987,0.88194 -0.008,1.10334 -0.008,1.10333 -0.49455,0.41044 -0.49456,0.41045 -0.2317,0.95566 -0.23169,0.95567 -0.74873,1.5875 -0.74873,1.5875 -0.23802,0.17639 -0.23802,0.17639 -0.23687,1.28885 -0.23686,1.28886 -0.48631,0.18661 -0.48631,0.18661 -0.23768,1.08217 -0.23768,1.08217 h -0.29672 -0.29672 l -0.22709,1.03396 -0.2271,1.03396 -0.50649,0.42035 -0.50649,0.42035 v 0.403 0.403 l -0.70556,1.31641 -0.70555,1.31642 v 1.22359 1.22359 l -0.7267,0.38891 -0.7267,0.38892 0.10934,0.94339 0.10934,0.9434 0.67095,0.1274 0.67096,0.1274 0.71848,0.66937 0.71848,0.66936 h 0.38403 0.38402 l 1.09861,1.00342 1.0986,1.00342 1.53765,-0.0333 1.53765,-0.0333 0.11273,0.79375 0.11273,0.79375 h 0.2905 0.2905 l 0.20875,0.54401 0.20876,0.54401 -1.61137,0.69071 -1.61137,0.69071 h -1.3113 -1.31131 l -0.43802,-0.43802 -0.43803,-0.43802 -0.26429,0.42763 -0.26429,0.42764 -1.5731,0.58247 -1.5731,0.58247 -5.537721,0.0561 -5.537715,0.0561 -0.272643,0.27265 -0.272642,0.27264 0.104747,1.2158 0.104747,1.2158 h -0.858568 -0.857809 l -0.933109,-1.12634 -0.933109,-1.12634 v -0.28477 -0.28477 h -1.069665 -1.069664 l -1.311586,-0.55329 -1.311585,-0.55328 -3.175,-0.17937 -3.175001,-0.17936 -0.705555,-0.29767 -0.705556,-0.29766 -1.669551,-0.19682 -1.669551,-0.19682 -1.064477,0.2129 -1.064476,0.21289 v 0.80845 0.80845 l -0.440972,0.14837 -0.440973,0.14837 -0.617361,-0.16011 -0.617361,-0.16012 v -0.27389 -0.27389 l 0.529167,-0.20306 0.529166,-0.20306 v -1.2458 -1.24579 H 65.917529 65.10614 l -0.423334,-0.42333 -0.423333,-0.42334 v -0.635 -0.635 h 0.36385 0.363849 l 0.203061,0.52917 0.20306,0.52917 h 1.196979 1.196979 v -1.04081 -1.0408 l 0.572706,-0.3205 0.572706,-0.32051 0.182404,-2.54933 0.182404,-2.54934 0.479612,-0.18404 0.479612,-0.18405 0.0077,-0.93239 0.0077,-0.9324 0.64085,-1.41111 0.640849,-1.41111 0.239131,-1.80409 0.239131,-1.80409 -0.518022,-0.42992 -0.518021,-0.42992 -0.810679,0.25309 -0.810679,0.25308 -0.259182,0.39342 -0.259181,0.39343 -0.0054,0.76855 -0.0054,0.76855 -0.529167,0.52917 -0.529166,0.52916 v 0.71323 0.71322 l -0.440972,0.28212 -0.440973,0.28211 -0.50587,0.88194 -0.505871,0.88195 -0.490106,0.97014 -0.490107,0.97014 h -0.287586 -0.287679 l -0.225245,1.20066 -0.225246,1.20066 -0.48187,0.18491 -0.48187,0.18491 -0.903017,1.90882 -0.903016,1.90882 -0.545796,0.45297 -0.545795,0.45297 v 0.78802 0.78802 l -1.15258,1.55003 -1.15258,1.55004 -0.787698,1.62614 -0.787698,1.62614 v 0.54098 0.54098 l -0.529167,0.20306 -0.529166,0.20306 v 0.98454 0.98455 l -0.705556,0.44062 -0.705555,0.44063 v 0.8782 0.87821 l -1.234723,2.36808 -1.234722,2.36809 v 0.80766 0.80767 h -0.47254 -0.472541 l -0.354231,-0.79375 -0.35423,-0.79375 0.475005,-1.14653 0.475005,-1.14652 h 0.351766 0.351766 v -2.29306 -2.29306 h -0.481188 -0.481189 l -1.018117,1.48744 -1.018117,1.48744 -0.633736,0.71742 -0.633737,0.71743 -0.512791,0.55876 -0.512791,0.55876 v 1.11693 1.11694 h -0.296152 -0.296152 l -0.409404,0.89854 -0.409404,0.89854 v 2.44044 2.44043 l -0.682363,0.36519 -0.682363,0.36519 h -0.37597 -0.37597 l -0.0048,-1.14653 -0.0048,-1.14653 -0.212717,-0.79375 -0.212717,-0.79375 h -0.447083 -0.447049 l -0.812956,2.003 -0.812955,2.00299 0.02537,1.68152 0.02537,1.68153 0.746616,0.94917 0.746616,0.94917 v 0.44044 0.44045 l 0.661767,0.17305 0.661767,0.17306 0.180822,1.36739 0.180822,1.3674 -0.353482,1.49207 -0.353481,1.49208 0.223169,0.88917 0.223169,0.88918 h 0.522446 0.522445 v 0.36454 0.36453 l 1.234722,1.23473 1.234723,1.23472 v 0.19951 0.19951 l 0.575348,1.21245 0.575349,1.21246 -0.220408,0.22041 -0.220408,0.22041 -0.647302,-0.5858 -0.647302,-0.5858 H 44.97267 44.615028 l -0.672914,-1.30016 -0.672913,-1.30015 -1.286997,-1.30976 -1.286998,-1.30976 -1.094252,-0.24034 -1.094253,-0.24034 v -0.59266 -0.59267 l 0.718496,-0.44871 0.718497,-0.44871 0.352869,-0.92811 0.352869,-0.92812 -0.55875,-1.17748 -0.55875,-1.17748 H 39.237766 38.9436 l -0.961012,-1.8994 -0.961012,-1.89941 0.246662,-1.12304 0.246661,-1.12304 0.495901,-0.1903 0.495901,-0.19029 v -1.70095 -1.70095 l 0.556675,-0.55667 0.556675,-0.55668 0.632036,-0.33825 0.632036,-0.33826 0.381147,-1.5016 0.381147,-1.5016 -0.42333,-0.2691 -0.42333,-0.2691 -1.852084,-0.005 -1.852083,-0.005 v 0.52916 0.52917 h -0.529167 -0.529166 v 0.53673 0.53673 l -0.881945,0.40184 -0.881944,0.40184 v 0.47254 0.47254 H 33.92059 33.567812 v -0.97993 -0.97993 l 0.79375,-0.69576 0.79375,-0.69577 0.970139,-0.42394 0.970139,-0.42394 v -0.92936 -0.92936 l -1.113131,-1.18013 -1.113132,-1.18014 -0.441005,-1.2828 -0.441006,-1.2828 0.546818,-0.20983 0.546818,-0.20983 0.428849,0.58648 0.428849,0.58649 h 0.335738 0.335739 l 0.771898,1.04405 0.771898,1.04404 1.1e-5,0.63165 1e-5,0.63165 1.245643,0.9939 1.245644,0.9939 0.606429,-0.11556 0.60643,-0.11556 0.115403,-0.81055 0.115404,-0.81054 -0.56128,-0.85662 -0.56128,-0.85662 0.05634,-3.10625 0.05634,-3.10625 -0.863053,-0.93125 -0.863054,-0.93125 -1.040467,-0.25508 -1.040468,-0.25508 -0.194517,-0.2941 -0.194518,-0.29411 -2.804093,-0.48567 -2.804094,-0.48568 -3.351389,0.26888 -3.351389,0.26888 -0.617361,0.25018 -0.617361,0.25019 v 0.29126 0.29126 l -0.744389,0.23626 -0.744389,0.23626 -0.843111,0.73308 -0.843111,0.73308 v 0.46554 0.46555 h -0.488022 -0.488022 l -0.212717,0.79375 -0.212716,0.79375 -0.0048,1.32771 -0.0048,1.3277 -0.345179,0.61257 -0.345178,0.61258 -0.713155,2.26312 -0.713155,2.26313 v 4.85542 4.85543 l 0.529167,0.52917 0.529166,0.52916 v 0.4714 0.47139 l 0.705556,1.31642 0.705555,1.31641 v 0.66909 0.66909 l 0.529167,0.20306 0.529167,0.20306 v 0.45962 0.45961 l 2.070631,1.9993 2.070631,1.99929 0.211353,0.55077 0.211352,0.55078 h 0.869243 0.869244 l 0.218207,0.68751 0.218207,0.68751 0.775705,0.24198 0.775704,0.24198 0.176389,0.21704 0.176389,0.21704 1.763889,0.5847 1.763889,0.5847 1.163351,0.24077 1.163351,0.24078 0.420814,0.67383 0.420814,0.67383 h 0.403982 0.403983 l 1.010463,0.52699 1.010464,0.52699 0.562685,0.002 0.562685,0.002 0.638519,0.70556 0.638519,0.70555 h 0.63335 0.63335 l 0.322473,0.57623 0.322473,0.57623 1.017973,-0.17356 1.017973,-0.17356 0.617361,-0.26402 0.617362,-0.26403 v 0.87649 0.8765 l 0.506866,0.42066 0.506867,0.42066 0.236045,2.00378 0.236044,2.00379 0.542655,0.88194 0.542656,0.88195 0.654711,0.6311 0.654711,0.6311 v 0.72484 0.72484 l 0.705556,0.18451 0.705555,0.18451 v 0.83781 0.83781 l 0.705556,0.44062 0.705555,0.44063 v 0.40656 0.40657 l 0.529167,0.20306 0.529167,0.20306 v 0.49909 0.4991 l 0.705555,0.1845 0.705556,0.18451 v 0.93182 0.93181 l 0.933458,0.8651 0.933458,0.8651 h 0.301264 0.301264 v 0.5054 0.50539 l 0.705556,0.22393 0.705555,0.22394 v 0.30523 0.30523 l 0.688702,0.21859 0.688701,0.21858 1.16507,1.16507 1.165069,1.16507 0.792063,0.25139 0.792062,0.25139 v 0.47737 0.47736 l 1.028862,0.22598 1.028863,0.22597 0.194788,0.50761 0.194788,0.50761 h 0.502495 0.502495 l 0.190295,0.4959 0.190295,0.49591 1.082171,0.23768 1.08217,0.23768 v 0.50114 0.50114 l 0.440972,0.0277 0.440973,0.0277 1.5875,1.00855 1.5875,1.00855 2.293055,1.16858 2.293056,1.16858 0.176389,0.2137 0.176389,0.2137 1.322916,0.24326 1.322917,0.24326 v 0.27094 0.27095 l 1.234722,0.48447 1.234722,0.48446 v 0.28694 0.28693 h 0.657981 0.65798 l 0.860087,0.67655 0.860087,0.67654 1.392349,0.25545 1.39235,0.25546 0.695856,0.47911 0.695857,0.47911 h 0.511087 0.511088 l 0.619347,0.5605 0.619346,0.5605 1.172321,0.30699 1.17232,0.30699 1.905883,0.53764 1.90589,0.53763 0.591329,0.53516 0.59134,0.53515 1.03056,0.0125 1.03055,0.0125 0.88195,0.50417 0.88194,0.50416 1.23472,0.0147 1.23473,0.0147 1.05833,0.5689 1.05833,0.56891 2.53363,0.26165 2.53362,0.26166 0.57838,0.57838 0.57838,0.57837 1.82689,0.0112 1.82688,0.0112 0.68479,0.51795 0.68479,0.51795 0.19715,-0.0112 0.19716,-0.0112 z m -32.526589,-19.02542 -0.400324,-0.48236 0.445323,-0.35478 0.445322,-0.35477 1.411111,-0.46948 1.411111,-0.46948 0.416106,-0.49069 0.416107,-0.4907 0.995005,-0.0876 0.995004,-0.0876 2.105799,-0.28204 2.10579,-0.28204 1.146075,-0.47886 1.14607,-0.47886 h 4.13816 4.13815 l 3.01692,-0.36666 3.01692,-0.36665 3.52778,-0.48233 3.52778,-0.48232 1.05833,0.15312 1.05833,0.15311 9.27633,0.28844 9.27633,0.28845 0.40742,0.40742 0.40742,0.40742 h 1.65276 1.65276 l 0.56974,0.86953 0.56974,0.86954 v 0.5178 0.51781 l -0.74106,0.2352 -0.74107,0.23521 -0.38782,-0.38782 -0.38783,-0.38782 h -1.15183 -1.15184 l -1.56591,-0.53164 -1.5659,-0.53164 -13.35129,-0.0243 -13.35128,-0.0243 -3.52778,0.3932 -3.52778,0.39319 -3.88054,0.30451 -3.88056,0.30451 -0.993105,0.3874 -0.99311,0.38741 H 95.4096 92.738991 l -0.817359,0.88194 -0.817358,0.88195 h -0.679205 -0.679204 z m -16.309928,-30.99578 -0.420906,-0.78647 -0.424576,-0.42458 -0.424577,-0.42457 -0.222595,-1.39203 -0.222595,-1.39204 0.302897,-1.62132 0.302896,-1.62133 -0.137527,-0.80268 -0.137526,-0.80268 0.341947,-0.51895 0.341948,-0.51895 0.199502,0.19951 0.199501,0.1995 0.08426,3.9064 0.08426,3.9064 0.248154,0.24778 0.248154,0.24777 0.85622,-0.2149 0.856219,-0.21489 0.264651,-0.79761 0.264651,-0.79761 -0.07279,-1.28561 -0.07279,-1.2856 0.342073,-0.21141 0.342073,-0.21142 0.542496,1.35583 0.542496,1.35583 -0.371629,1.46411 -0.371629,1.4641 h -0.318596 -0.318598 l -0.335315,0.88195 -0.335315,0.88194 h -0.878264 -0.878264 z m 55.847897,-5.46372 -0.77126,-0.95852 v -1.3456 -1.34561 l 0.52916,-0.20306 0.52917,-0.20306 v -0.45368 -0.45368 l 0.50059,-0.1921 0.5006,-0.19209 0.70824,0.61425 0.70824,0.61425 -0.065,1.79912 -0.065,1.79912 -0.66933,0.73959 -0.66932,0.73959 h -0.23239 -0.23239 z m -94.061306,-3.24297 -0.198353,-0.32095 0.201936,-0.52624 0.201937,-0.52623 0.683797,-0.17882 0.683797,-0.17882 0.51181,0.73071 0.51181,0.73072 -0.182497,0.29528 -0.182497,0.29529 h -1.016693 -1.016694 z m -1.41593,-11.21074 -0.238021,-0.94835 -0.515842,-0.3772 -0.515842,-0.37719 -0.07813,-1.01718 -0.07813,-1.01718 0.438802,-0.1554 0.438802,-0.15539 0.346216,0.91062 0.346217,0.91062 h 0.323266 0.323265 l 0.201888,0.80438 0.201888,0.80439 -0.204789,0.78311 -0.204789,0.78312 h -0.273389 -0.273389 z m -6.407267,-9.91391 -1.100744,-0.9558 0.708504,-1.35018 0.708504,-1.35017 0.837548,-0.31844 0.837548,-0.31843 0.370489,-0.81314 0.370489,-0.81313 1.571839,-0.83386 1.571839,-0.83386 0.126178,0.1406 0.126178,0.14061 0.243986,0.79375 0.243987,0.79375 h -0.7404 -0.740401 l -0.226908,0.61736 -0.226908,0.61736 -0.440007,0.26669 -0.440007,0.26668 -0.226634,1.03186 -0.226633,1.03185 -0.506491,0.42035 -0.50649,0.42035 v 1.01514 1.01514 l -0.617361,-0.0143 -0.617361,-0.0143 z m 85.922263,-15.68427 -0.0215,-0.0882 -0.19882,-3.1171 -0.19882,-3.1171 0.83772,0.11849 0.83771,0.11849 0.0233,0.88194 0.0233,0.88195 0.43725,1.04456 0.43725,1.04457 -0.22393,0.89218 -0.22392,0.89218 -0.413,0.26271 -0.413,0.26272 -0.44098,0.005 -0.44097,0.005 z m 34.34384,90.38324 1.48464,-0.674 1.42875,-0.008 1.42875,-0.008 0.42333,-0.42334 0.42333,-0.42333 v -0.64741 -0.64741 l 0.48957,-0.78134 0.48957,-0.78134 0.23018,-1.31333 0.23017,-1.31332 0.46877,-0.27418 0.46876,-0.27417 0.23057,-0.74394 0.23057,-0.74395 -0.5247,-0.43546 -0.5247,-0.43546 -1.03703,0.73843 -1.03703,0.73844 h -0.56291 -0.5629 v 0.70555 0.70556 h -0.52916 -0.52917 v 0.36151 0.36151 l -0.88195,0.33531 -0.88194,0.33532 v 0.32326 0.32327 l -0.97002,0.24346 -0.97003,0.24346 -2.02859,2.09253 -2.02858,2.09253 v 0.46568 0.46568 l 0.26235,0.26235 0.26235,0.26235 1.51621,-0.22737 1.5162,-0.22737 z m 9.00352,-3.09791 0.11054,-1.11936 h -0.72791 -0.7279 v 0.99954 0.99953 l 0.24253,0.24254 0.24254,0.24253 0.37482,-0.12271 0.37483,-0.12271 z m -82.817631,-1.67179 0.458472,-0.55242 -0.889016,-0.77049 -0.889017,-0.77049 -0.420617,-0.79375 -0.420616,-0.79375 -0.60495,-0.006 -0.604949,-0.006 -1.675694,-1.57189 -1.675695,-1.57189 v -0.36241 -0.36241 h -0.366908 -0.366908 l -1.342358,-1.41111 -1.342358,-1.41111 h -0.4074 -0.407401 l -0.0024,-0.26458 -0.0024,-0.26459 -1.165947,-0.79375 -1.165947,-0.79375 h -1.751758 -1.751759 l -0.78405,0.54917 -0.784051,0.54917 0.01174,3.0668 0.01174,3.06681 0.662172,0.79375 0.662172,0.79375 h 1.41756 1.417559 l 0.513898,0.51389 0.513897,0.5139 1.716162,0.39752 1.716162,0.39751 0.705556,0.29792 0.705555,0.29792 1.411112,0.23163 1.411111,0.23163 0.529166,0.4629 0.529167,0.46289 0.705556,0.17189 0.705555,0.17188 1.279721,0.0409 1.279721,0.0409 z M 52.617806,215.0872 v -0.48637 l -1.072155,-0.4441 -1.072154,-0.4441 -0.485274,0.66365 -0.485273,0.66365 0.4109,0.26142 0.410901,0.26141 1.146528,0.005 1.146527,0.005 z m 123.824994,-42.02336 0.43917,-0.52916 0.57417,-0.001 0.57416,-0.001 0.003,-1.78946 0.003,-1.78946 0.60242,-0.33713 0.60243,-0.33714 0.71719,-1.62132 0.71719,-1.62133 v -0.79935 -0.79936 l 0.54426,-0.20886 0.54427,-0.20885 -0.11293,-6.44347 -0.11293,-6.44347 -0.42129,-1.05834 -0.42129,-1.05833 -0.18697,-0.94547 -0.18696,-0.94547 -0.57146,-0.57146 -0.57145,-0.57145 -0.56918,0.10961 -0.56917,0.10961 -0.20364,1.25281 -0.20364,1.25281 -0.72546,0.72545 -0.72545,0.72546 0.17042,8.6044 0.17043,8.60441 -0.74601,2.41528 -0.746,2.41527 v 0.96238 0.96238 l 0.23519,0.23518 0.23518,0.23519 h 0.25079 0.25078 z m -81.577371,-38.35164 0.447394,-0.37131 1.897452,0.59683 1.89746,0.59682 1.316175,-0.54993 1.31618,-0.54993 h 0.64587 0.64588 l 0.90767,-0.41357 0.90768,-0.41357 -0.12132,-0.36397 -0.12133,-0.36398 -1.12253,-0.29088 -1.12253,-0.29087 v -0.51908 -0.51908 h -1.21719 -1.217205 l -0.28211,0.50107 -0.28211,0.50108 -0.91378,0.22858 -0.91378,0.22857 -0.60856,-0.92878 -0.60856,-0.92879 0.22745,-1.03559 0.22745,-1.03559 H 96.210439 95.64979 l -0.604116,-0.70555 -0.604115,-0.70556 H 94.117879 93.7942 l -0.392858,-0.53726 -0.392857,-0.53727 -2.111998,-0.114 -2.111999,-0.114 -0.319096,-1.11262 -0.319096,-1.11263 h -0.64639 -0.64639 l -0.577872,-0.88194 -0.577872,-0.88195 h -0.651074 -0.651074 l -0.361368,0.44098 -0.361369,0.44097 -0.887262,1.10926 -0.887263,1.10926 v 1.0172 1.0172 l -0.705556,0.60411 -0.705555,0.60412 v 0.69246 0.69245 l -1.213287,0.57574 -1.213286,0.57575 -0.226531,1.03138 -0.226531,1.03139 -0.324071,-0.20029 -0.324072,-0.20028 v -0.63076 -0.63076 l 0.710373,-0.81906 0.710372,-0.81907 -0.205819,-1.09711 -0.20582,-1.09711 0.998974,-1.04822 0.998973,-1.04822 0.509667,-1.5875 0.509667,-1.5875 0.463458,-0.28614 0.463458,-0.28615 -0.612435,-1.03677 -0.612435,-1.03677 h -0.40991 -0.409909 l -0.439169,-0.52917 -0.43917,-0.52916 h -0.834014 -0.834015 l -0.487125,1.14652 -0.487126,1.14653 -0.92872,0.98832 -0.928719,0.98831 v 0.17693 0.17693 l -0.881945,1.2979 -0.881944,1.2979 v 0.58592 0.58592 l -0.529167,0.20306 -0.529167,0.20306 v 0.73982 0.73982 l -0.343472,0.64178 -0.343472,0.64178 -0.89125,0.22369 -0.89125,0.22369 v 0.88279 0.88279 l 0.970139,0.38317 0.970139,0.38317 0.622873,0.32125 0.622873,0.32125 3.257682,-0.0519 3.257683,-0.0519 1.940278,0.63423 1.940277,0.63424 2.822223,0.20495 2.822222,0.20495 2.996642,-0.11656 2.996642,-0.11656 z m -9.021531,-4.68551 -0.413471,-0.90747 0.615218,-0.21812 0.615217,-0.21811 0.529167,-0.43382 0.529166,-0.43382 0.79375,-0.24189 0.79375,-0.24189 v 1.22399 1.22398 l -0.970139,0.35121 -0.970138,0.3512 -0.554525,0.22611 -0.554524,0.2261 z m 70.759942,3.36893 0.61257,-0.33351 1.30314,-0.20794 1.30315,-0.20793 0.23865,-1.59147 0.23866,-1.59146 -0.22897,-1.43191 -0.22898,-1.4319 -0.51907,-1.00378 -0.51908,-1.00378 v -2.81414 -2.81414 l -0.93181,-0.73296 -0.93182,-0.73297 -0.46563,0.38644 -0.46564,0.38644 -0.20049,0.63169 -0.20049,0.63169 -1.04789,0.20958 -1.04789,0.20958 v 0.50024 0.50024 l -0.57875,0.22209 -0.57875,0.22209 0.18643,3.93337 0.18644,3.93337 -0.34775,0.99756 -0.34776,0.99757 h -0.49465 -0.49466 v -1.19698 -1.19698 l -0.51009,-0.19574 -0.51009,-0.19574 -0.10727,-1.87048 -0.10727,-1.87047 -1.41111,0.11274 -1.41111,0.11275 -0.7283,0.681 -0.72829,0.68101 h -0.4142 -0.4142 l -0.73005,0.61736 -0.73005,0.61736 -0.70261,1.12831 -0.70261,1.12832 -0.77624,0.22306 -0.77623,0.22306 -1.49931,0.6789 -1.4993,0.67891 v 0.36932 0.36932 l -1.05792,0.36879 -1.05791,0.36879 0.19679,0.31842 0.19679,0.31841 h 10.21452 10.21452 z m -12.01904,-3.77265 -0.22559,-0.22559 0.18761,-0.30358 0.18762,-0.30357 1.3021,0.005 1.30209,0.005 0.4708,0.29843 0.47079,0.29843 -0.82357,0.22052 -0.82357,0.22051 -0.91134,0.005 -0.91135,0.005 z m -4.21987,-2.59663 0.60412,-0.70555 h 0.43835 0.43836 l 0.3776,-0.70556 0.3776,-0.70555 h 0.83179 0.83179 l 0.20306,-0.52917 0.20306,-0.52917 h 0.52782 0.52783 l 0.35266,-0.65895 0.35266,-0.65895 0.98267,-0.1997 0.98267,-0.19971 0.48595,-1.11643 0.48595,-1.11643 -0.42865,-1.4645 -0.42864,-1.46449 -0.47212,-1.05834 -0.47211,-1.05833 -0.23004,-1.76389 -0.23004,-1.76389 -0.44991,-0.70555 -0.44991,-0.70556 -0.24795,-1.66351 -0.24794,-1.66351 -1.21494,-2.33087 -1.21493,-2.33087 -0.0112,-1.29729 -0.0112,-1.297278 -0.51795,-0.68479 -0.51794,-0.68478 -0.005,-1.60827 -0.005,-1.60827 -0.21271,-0.79375 -0.21272,-0.79375 h -0.38052 -0.38053 l -0.96077,-0.92048 -0.96078,-0.92048 -0.38144,0.23574 -0.38145,0.23575 v 2.12104 2.12105 l 0.49193,0.49193 0.49194,0.49194 0.0207,5.921058 0.0207,5.92106 -0.48321,1.76389 -0.48321,1.76388 -0.24763,7.28613 -0.24762,7.28612 0.23905,0.3868 0.23905,0.38679 h 0.68819 0.68819 z m -41.351075,-1.67569 0.85388,-0.97014 0.0112,-2.23863 0.0111,-2.23862 0.483035,-0.93638 0.48302,-0.93637 0.70736,-1.41111 0.70737,-1.41111 0.19753,-2.78707 0.19753,-2.78707 0.41332,-0.25544 0.41333,-0.25545 0.27971,-2.95471 0.2797,-2.9547 0.60287,-1.76389 0.60287,-1.763888 0.49118,-1.11165 0.49118,-1.11165 0.0125,-1.35779 0.0125,-1.3578 0.50416,-0.88195 0.50417,-0.88194 0.0125,-0.79375 0.0125,-0.79375 h -0.15979 -0.15979 l -0.81035,0.36987 -0.81035,0.36988 -0.80143,1.22439 -0.80142,1.22438 -0.22093,1.61185 -0.22093,1.61185 -0.47695,0.18302 -0.47695,0.18302 v 1.14231 1.142298 l -0.70556,0.63852 -0.70555,0.63852 v 0.61313 0.61314 l -0.52917,0.20306 -0.529175,0.20306 v 1.02183 1.02183 l -0.70555,0.89697 -0.70556,0.89697 v 0.49116 0.49116 l -0.32027,0.33514 -0.32028,0.33514 -0.87126,1.5875 -0.871268,1.5875 -0.252836,1.17036 -0.252837,1.17037 -0.495901,0.19029 -0.495901,0.1903 v 1.15923 1.15924 l -0.529167,0.20306 -0.529166,0.20306 v 0.45727 0.45727 l -0.705556,1.31641 -0.705555,1.31641 v 0.84668 0.84668 l 1.246997,1.09488 1.246998,1.09488 h 0.654198 0.654198 l 0.832836,0.69381 0.83283,0.69382 0.2815,0.0117 0.28151,0.0117 z m -8.891217,-4.95819 0.947946,-0.98945 v -1.96597 -1.96597 l 0.529167,-0.43917 0.529167,-0.43917 v -0.62384 -0.62383 l 0.697807,-1.53783 0.697808,-1.53783 0.0077,-1.67569 0.0077,-1.6757 h 0.529166 0.529167 v -0.50834 -0.50835 l -0.401184,-0.24795 -0.401184,-0.24794 -0.568955,0.71872 -0.568955,0.71872 -0.79375,0.23773 -0.79375,0.23774 v 1.48007 1.48007 l -0.79375,0.34824 -0.79375,0.34824 -0.114371,1.19782 -0.114372,1.19782 -1.205485,1.27162 -1.205485,1.27162 -0.0031,0.61736 -0.0031,0.61736 h -0.529167 -0.529166 v 1.2458 1.24579 l 0.529166,0.20306 0.529167,0.20306 v 0.46203 0.46202 l 0.440972,0.17794 0.440972,0.17794 0.727749,0.0279 0.727748,0.0279 z m -7.214623,-3.20634 0.480487,-0.30443 0.34199,-1.54226 0.341991,-1.54225 0.184715,-1.41112 0.184715,-1.4111 0.622045,-0.70556 0.622045,-0.70555 0.225562,-1.74475 0.225562,-1.74475 0.338624,-0.20928 0.338623,-0.20928 0.09963,-1.18259 0.09963,-1.18258 -0.46428,-0.16375 -0.46428,-0.16375 -0.194226,0.74273 -0.194226,0.74272 h -0.421679 -0.421679 l -0.771898,1.04405 -0.771899,1.04405 v 0.70742 0.70743 l -0.705549,0.3776 -0.705556,0.37761 v 0.85712 0.85712 l -0.705556,0.3776 -0.705555,0.3776 v 1.05699 1.05699 l -0.50761,0.19479 -0.507609,0.19479 -0.224235,1.02093 -0.224235,1.02094 0.219254,0.69081 0.219254,0.69081 0.600785,0.15814 0.600785,0.15814 0.881944,0.0355 0.881945,0.0355 z m 73.344185,-0.6998 0.45904,-0.57248 0.56985,-0.81223 0.56985,-0.81223 -0.75824,-1.02556 -0.75823,-1.02557 -0.012,-1.3372 -0.012,-1.3372 -0.68162,-1.41111 -0.68161,-1.41112 -0.012,-2.14874 -0.012,-2.14874 -1.57785,-1.67041 -1.57785,-1.670398 -0.36243,0.22399 -0.36243,0.224 v 1.579088 1.57909 l 0.52951,0.80813 0.5295,0.80813 0.0806,6.32321 0.0807,6.32321 0.35999,0.26832 0.35998,0.26833 1.40504,-0.22501 1.40504,-0.22502 z m -66.151755,-39.725028 0.970139,-0.85388 v -1.40721 -1.40721 l -0.349607,-0.21607 -0.349608,-0.21607 -0.845358,0.63622 -0.845358,0.63622 -0.415369,1.14653 -0.415369,1.14653 h -0.329943 -0.329943 v 0.50463 0.50463 l 0.79375,0.15288 0.79375,0.15288 0.176389,0.0369 0.176388,0.0369 z m -26.782258,-0.5353 0.412119,-3.6e-4 0.970139,-1.72733 0.970139,-1.72733 v -0.67433 -0.67433 l -0.466872,-0.63849 -0.466872,-0.63848 -0.856045,0.48286 -0.856044,0.48287 -0.09359,0.0348 -0.09359,0.0348 -0.52377,2.01089 -0.52377,2.01089 v 0.72608 0.72609 l 0.558019,-0.21413 0.55802,-0.21413 z m 16.821609,-3.36098 0.441206,-0.8244 -0.212193,-0.55297 -0.212192,-0.55296 h -1.045633 -1.045632 l -0.223934,0.70555 -0.223935,0.70556 h -0.329005 -0.329005 v 0.64676 0.64676 l 0.165606,0.1656 0.165606,0.16561 1.203953,-0.14055 1.203952,-0.14056 z M 139.75391,232.5069 v -0.35278 l 0.44097,0.0248 0.44098,0.0248 0.70555,0.30319 0.70556,0.30319 -1.14653,0.0248 -1.14653,0.0248 z"
       id="path1" /></g></svg>
